<svg width="71" height="71" viewBox="0 0 71 71" fill="none" xmlns="http://www.w3.org/2000/svg">
<rect width="71" height="71" rx="35.5" fill="white" fill-opacity="0.33"/>
<path d="M32.1026 27.4529C32.3135 27.3427 32.5503 27.2936 32.7869 27.3112C33.0235 27.3287 33.2507 27.4122 33.4436 27.5523L42.4692 34.0938C42.6363 34.2148 42.7725 34.3746 42.8665 34.5598C42.9605 34.7451 43.0096 34.9504 43.0096 35.1588C43.0096 35.3671 42.9605 35.5724 42.8665 35.7577C42.7725 35.9429 42.6363 36.1027 42.4692 36.2237L33.4436 42.7652C33.2508 42.9052 33.0237 42.9886 32.7872 43.0061C32.5507 43.0237 32.3141 42.9747 32.1033 42.8647C31.8924 42.7546 31.7156 42.5877 31.5922 42.3822C31.4688 42.1768 31.4036 41.9408 31.4038 41.7003V28.6173C31.4036 28.3767 31.4687 28.1408 31.5919 27.9354C31.7152 27.73 31.8919 27.563 32.1026 27.4529Z" fill="#6063FF"/>
</svg>
